<?xml version="1.0" encoding="UTF-8"?><svg id="Layer_2" xmlns="http://www.w3.org/2000/svg" viewBox="0 0 808.75 566.12"><defs><style>.cls-1,.cls-2,.cls-3,.cls-4,.cls-5{stroke-width:0px;}.cls-1,.cls-6{fill:#f2e2e3;}.cls-2{fill:#715daf;}.cls-3{fill:#6d5cab;}.cls-4{fill:#6f58ad;}.cls-5{fill:#b39dde;}.cls-6{stroke:#669;stroke-miterlimit:3.2;stroke-width:4px;}</style></defs><g id="svg12383"><rect class="cls-4" width="808.75" height="566.12"/><path class="cls-3" d="m689.1,160.64l-90.56,97.02-24.81,26.57-29.61,31.71-34.24,36.68-29.5,31.61-15.31,16.41-24.99,26.77-8.02,8.59-41.28,44.21-51.18-47.78-7.77-7.25-25.86-24.14-27.8-25.96s-.1-.09-.14-.13l-1.3-1.21s-.06-.06-.1-.1l-47.84-44.66-34.13-31.85-31.54-29.46-100.06-93.41c33.14-30.52,77.17-49.38,125.6-50.09.95-.02,1.9-.02,2.86-.02s1.91,0,2.86.02c27.93.4,54.4,6.86,78.15,18.1,30.64-22.4,68.26-35.84,108.98-36.43.95-.02,1.9-.02,2.86-.02s1.91,0,2.86.02c40.72.6,78.33,14.03,108.97,36.43,23.76-11.24,50.23-17.69,78.16-18.1.95-.02,1.91-.02,2.86-.02s1.9,0,2.86.02c40.75.6,78.38,14.05,109.04,36.48Z"/><path class="cls-1" d="m574.07,295.5c0,62.33-30.07,117.64-76.47,152.23h0c-21.26-1.62-40.93-8.9-57.51-20.33-20.42-14.07-36.15-34.44-44.4-58.3,1.1,3.64,2.32,7.24,3.64,10.78,7.66,20.64,18.81,39.58,32.75,56.11,9.44,11.22,20.15,21.31,31.93,30.08.46.34.91.67,1.37,1.02-24.57,11.62-52.02,18.12-81,18.12s-56.44-6.49-81-18.12c.46-.34.93-.68,1.39-1.02h0c13-9.69,24.72-21,34.85-33.65,14.47-18.05,25.71-38.81,32.84-61.39-7.98,21.81-22.25,40.59-40.61,54.14-17.22,12.73-38.06,20.85-60.69,22.57-29.13-21.7-51.82-51.56-64.68-86.19-7.46-20.09-11.61-41.78-11.8-64.42,0-.54,0-1.08,0-1.62,0-23.22,4.18-45.47,11.81-66.03.33-.9.67-1.79,1.02-2.69,13.23-34.04,36-63.3,65.03-84.52,30.64-22.4,68.26-35.84,108.98-36.43.95-.02,1.9-.02,2.86-.02s1.91,0,2.86.02c40.72.6,78.33,14.03,108.97,36.43,29.02,21.2,51.79,50.45,65.02,84.46,7.01,18,11.34,37.33,12.53,57.51.22,3.73.33,7.49.33,11.27Z"/><path class="cls-4" d="m497.59,447.73c-10.03,7.47-20.81,13.97-32.23,19.36-.46-.34-.91-.67-1.37-1.02-11.77-8.77-22.49-18.87-31.93-30.08-13.94-16.53-25.09-35.47-32.75-56.11-1.32-3.54-2.53-7.14-3.64-10.78,8.26,23.86,23.99,44.23,44.4,58.3,16.58,11.43,36.25,18.71,57.51,20.33Z"/><path class="cls-6" d="m598.54,257.67c15.95,20.04,25.48,45.42,25.48,73.02,0,34.28-14.7,65.14-38.14,86.59-20.88,19.13-48.7,30.8-79.25,30.8-3.04,0-6.05-.12-9.03-.34h0c-21.26-1.62-40.93-8.9-57.51-20.33-20.42-14.07-36.15-34.44-44.4-58.3-2.25-7.41-4.06-15-5.41-22.76,0-.02,0-.03,0-.06-1.82-10.55-2.76-21.38-2.76-32.45,0-23.22,4.18-45.47,11.81-66.03.33-.9.67-1.79,1.02-2.69,17.62-45.32,52.16-82.19,95.85-102.86,23.76-11.24,50.23-17.69,78.16-18.1.95-.02,1.91-.02,2.86-.02s1.9,0,2.86.02c40.75.6,78.38,14.05,109.04,36.48l-90.56,97.02Z"/><path class="cls-4" d="m372.45,371.03c-7.13,22.58-18.37,43.34-32.84,61.39-10.14,12.64-21.85,23.96-34.85,33.65h0c-.46.34-.93.68-1.39,1.02-11.41-5.39-22.19-11.88-32.21-19.35,22.63-1.71,43.47-9.83,60.69-22.57,18.36-13.55,32.63-32.33,40.61-54.14Z"/><path class="cls-6" d="m381.23,313.84c0,10.41-.84,20.61-2.45,30.56-1.47,9.11-3.6,18-6.33,26.63-7.98,21.81-22.25,40.59-40.61,54.14-17.22,12.73-38.06,20.85-60.69,22.57-2.96.22-5.95.33-8.97.33-20.16,0-39.13-5.08-55.71-14.03-36.74-19.84-61.68-58.68-61.68-103.36,0-23.19,6.72-44.81,18.34-63.02l-100.06-93.41c33.14-30.52,77.17-49.38,125.6-50.09.95-.02,1.9-.02,2.86-.02s1.91,0,2.86.02c27.93.4,54.4,6.86,78.15,18.1,43.68,20.66,78.21,57.51,95.84,102.8,8.3,21.33,12.86,44.52,12.86,68.78Z"/><circle id="circle4731" class="cls-1" cx="299.43" cy="330.68" r="70.65"/><circle id="circle4731-2" class="cls-1" cx="475.03" cy="330.68" r="70.65"/><path class="cls-6" d="m379.57,330.68c0,4.64-.27,9.22-.79,13.72-1.08,9.25-3.23,18.17-6.33,26.63-7.98,21.81-22.25,40.59-40.61,54.14-17.22,12.73-38.06,20.85-60.69,22.57-2.96.22-5.95.33-8.97.33-20.16,0-39.13-5.08-55.71-14.03-36.74-19.84-61.68-58.68-61.68-103.36,0-23.19,6.72-44.81,18.34-63.02,10.74-16.86,25.68-30.8,43.35-40.34.33-.18.67-.37,1.02-.55,16.33-8.61,34.93-13.49,54.68-13.49,64.83,0,117.39,52.55,117.39,117.39Z"/><path class="cls-6" d="m624.02,330.68c0,34.28-14.7,65.14-38.14,86.59-20.88,19.13-48.7,30.8-79.25,30.8-3.04,0-6.05-.12-9.03-.34h0c-21.26-1.62-40.93-8.9-57.51-20.33-20.42-14.07-36.15-34.44-44.4-58.3-2.53-7.29-4.35-14.9-5.41-22.76,0-.02,0-.03,0-.06-.67-5.1-1.02-10.31-1.02-15.61,0-64.83,52.55-117.39,117.39-117.39,19.71,0,38.28,4.86,54.58,13.43,8.98,4.72,17.26,10.57,24.67,17.37,4.57,4.18,8.81,8.72,12.66,13.57,15.95,20.04,25.48,45.42,25.48,73.02Z"/><circle id="circle12377" class="cls-4" cx="256.86" cy="330.68" r="47.62"/><circle id="circle12377-2" class="cls-4" cx="511.74" cy="333.73" r="47.62"/><circle id="circle13021" class="cls-1" cx="238.22" cy="318.28" r="22.39"/><circle id="circle13021-2" class="cls-1" cx="489.35" cy="321.33" r="22.39"/><polygon class="cls-5" points="389.53 471.09 355.71 437.84 388.96 404.03 389.53 471.09"/><polygon class="cls-2" points="422.78 437.28 389.53 471.09 388.96 404.03 422.78 437.28"/></g></svg>
