<svg fill="none" height="100%" width="100%" viewBox="0 0 789 933" xmlns:xlink="http://www.w3.org/1999/xlink" xmlns="http://www.w3.org/2000/svg"><g transform="matrix(1,0,0,1,0.3,-0.14)" id="i0"><g id="i1" transform="matrix(1,0,0,1,0,0)"><path fill="#b39ede" d="M643.83,240.66C643.83,240.66,643.83,848.56,643.83,848.56C629.79,859.14,614.99,868.77,599.53,877.37C598.82,877.77,598.09,878.17,597.36,878.56C592.63,881.16,587.83,883.66,582.97,886.05C582.01,886.53,581.04,887,580.07,887.47C579.44,887.77,578.8,888.08,578.16,888.39C575.71,889.55,573.24,890.7,570.75,891.81C569.83,892.23,568.91,892.64,567.98,893.04C566.45,893.72,564.92,894.39,563.37,895.04C562.06,895.6,560.75,896.15,559.43,896.69C558.27,897.17,557.1,897.64,555.93,898.11C554.76,898.58,553.59,899.04,552.41,899.5C552.31,899.54,552.22,899.58,552.13,899.61C550.61,900.2,549.08,900.78,547.55,901.35C546.02,901.92,544.48,902.48,542.94,903.03C541.36,903.6,539.77,904.16,538.17,904.71C536.54,905.27,534.91,905.82,533.27,906.35C510.64,913.78,487.07,919.15,462.8,922.24C462.8,922.24,365.07,922.24,365.07,922.24C338.87,918.9,313.49,912.9,289.22,904.53C285.5,903.25,281.81,901.91,278.15,900.52C277.02,900.09,275.9,899.66,274.78,899.22C274.11,898.96,273.43,898.69,272.76,898.42C271.99,898.12,271.21,897.81,270.44,897.49C269.36,897.06,268.3,896.62,267.23,896.18C266.79,895.99,266.34,895.81,265.9,895.62C264.86,895.18,263.83,894.75,262.81,894.3C261.87,893.9,260.93,893.49,260,893.08C259.38,892.81,258.78,892.54,258.16,892.26C255.97,891.29,253.79,890.29,251.63,889.27C247.29,887.23,242.99,885.12,238.74,882.92C237.69,882.38,236.63,881.83,235.59,881.27C229.26,877.93,223.03,874.41,216.92,870.73C215.9,870.12,214.88,869.5,213.87,868.87C212.98,868.33,212.09,867.78,211.21,867.22C210.28,866.64,209.35,866.05,208.43,865.46C207.28,864.73,206.14,863.99,205,863.24C203.86,862.5,202.72,861.75,201.59,860.99C200.46,860.23,199.33,859.47,198.21,858.7C197.08,857.93,195.97,857.15,194.85,856.37C193.74,855.59,192.63,854.79,191.52,854C190.41,853.21,189.31,852.42,188.22,851.62C187.39,851.02,186.57,850.41,185.75,849.8C184.53,848.88,183.31,847.96,182.09,847.03C181.48,846.56,180.87,846.1,180.27,845.63C179.66,845.17,179.06,844.7,178.46,844.23C177.39,843.39,176.33,842.55,175.26,841.7C173.14,840,171.04,838.28,168.95,836.54C167.91,835.67,166.87,834.79,165.84,833.91C165.84,833.91,165.84,219.54,165.84,219.54C166.26,219.31,166.69,219.08,167.13,218.85C201.4,130.71,286.45,67.94,386.35,66.47C386.35,66.47,393.55,66.47,393.55,66.47C493.42,67.94,578.46,130.68,612.75,218.78C624.06,224.73,634.5,232.1,643.83,240.66C643.83,240.66,643.83,240.66,643.83,240.66Z" /></g><g id="i2" transform="matrix(1,0,0,1,0,0)"><path fill="#b39ede" d="M643.83,237.35C643.83,237.35,643.83,848.56,643.83,848.56C629.79,859.14,614.99,868.77,599.53,877.37C598.82,877.77,598.09,878.17,597.36,878.56C592.63,881.16,587.83,883.66,582.97,886.05C582.01,886.53,581.04,887,580.07,887.47C579.44,887.77,578.8,888.08,578.16,888.39C575.71,889.55,573.24,890.7,570.75,891.81C569.83,892.23,568.91,892.64,567.98,893.04C566.45,893.72,564.92,894.39,563.37,895.04C562.06,895.6,560.75,896.15,559.43,896.69C558.27,897.17,557.1,897.64,555.93,898.11C554.76,898.58,553.59,899.04,552.41,899.5C552.31,899.54,552.22,899.58,552.13,899.61C550.61,900.2,549.08,900.78,547.55,901.35C546.02,901.92,544.48,902.48,542.94,903.03C541.36,903.6,539.77,904.16,538.17,904.71C536.54,905.27,534.91,905.82,533.27,906.35C510.64,913.78,487.07,919.15,462.8,922.24C446.8,924.29,430.51,925.34,413.96,925.34C397.41,925.34,381.08,924.29,365.07,922.24C338.87,918.9,313.49,912.9,289.22,904.53C285.5,903.25,281.81,901.91,278.15,900.52C277.02,900.09,275.9,899.66,274.78,899.22C274.11,898.96,273.43,898.69,272.76,898.42C271.99,898.12,271.21,897.81,270.44,897.49C269.36,897.06,268.3,896.62,267.23,896.18C266.79,895.99,266.34,895.81,265.9,895.62C264.86,895.18,263.83,894.75,262.81,894.3C261.87,893.9,260.93,893.49,260,893.08C259.38,892.81,258.78,892.54,258.16,892.26C255.97,891.29,253.79,890.29,251.63,889.27C247.29,887.23,242.99,885.12,238.74,882.92C237.69,882.38,236.63,881.83,235.59,881.27C229.26,877.93,223.03,874.41,216.92,870.73C215.9,870.12,214.88,869.5,213.87,868.87C212.98,868.33,212.09,867.78,211.21,867.22C210.28,866.64,209.35,866.05,208.43,865.46C207.28,864.73,206.14,863.99,205,863.24C203.86,862.5,202.72,861.75,201.59,860.99C200.46,860.23,199.33,859.47,198.21,858.7C197.08,857.93,195.97,857.15,194.85,856.37C193.74,855.59,192.63,854.79,191.52,854C190.41,853.21,189.31,852.42,188.22,851.62C187.39,851.02,186.57,850.41,185.75,849.8C184.53,848.88,183.31,847.96,182.09,847.03C181.48,846.56,180.87,846.1,180.27,845.63C179.66,845.17,179.06,844.7,178.46,844.23C177.39,843.39,176.33,842.55,175.26,841.7C173.14,840,171.04,838.28,168.95,836.54C167.91,835.67,166.87,834.79,165.84,833.91C165.84,833.91,165.84,251.99,165.84,251.99C232.63,194.97,319.27,160.56,413.96,160.56C500.24,160.56,579.85,189.14,643.83,237.35C643.83,237.35,643.83,237.35,643.83,237.35Z" /></g><g id="i3" transform="matrix(1,0,0,1,0,0)"><path fill="#ed9680" d="M644.03,694.15C644.03,826.14,537.03,933.14,405.04,933.14C273.05,933.14,166.05,826.14,166.05,694.15C166.05,562.16,273.05,455.16,405.04,455.16C537.03,455.16,644.03,562.16,644.03,694.15C644.03,694.15,644.03,694.15,644.03,694.15Z" /></g><g id="i4" transform="matrix(1,0,0,1,0,0)"><path stroke-miterlimit="3.2" stroke-width="2" stroke="#0000ff" fill="#e87d87" d="M643.83,459.89C643.83,459.89,643.83,848.56,643.83,848.56C629.79,859.14,614.99,868.77,599.53,877.37C598.82,877.77,598.09,878.17,597.36,878.56C592.63,881.16,587.83,883.66,582.97,886.05C582.01,886.53,581.04,887,580.07,887.47C579.44,887.77,578.8,888.08,578.16,888.39C575.71,889.55,573.24,890.7,570.75,891.81C569.83,892.23,568.91,892.64,567.98,893.04C566.45,893.72,564.92,894.39,563.37,895.04C562.06,895.6,560.75,896.15,559.43,896.69C558.27,897.17,557.1,897.64,555.93,898.11C554.76,898.58,553.59,899.04,552.41,899.5C552.31,899.54,552.22,899.58,552.13,899.61C550.61,900.2,549.08,900.78,547.55,901.35C546.02,901.92,544.48,902.48,542.94,903.03C541.36,903.6,539.77,904.16,538.17,904.71C536.54,905.27,534.91,905.82,533.27,906.35C461.27,865.17,412.75,787.63,412.75,698.75C412.75,569.41,515.51,464.06,643.83,459.89C643.83,459.89,643.83,459.89,643.83,459.89Z" /></g><g id="i5" transform="matrix(1,0,0,1,0,0)"><path stroke-miterlimit="3.2" stroke-width="2" stroke="#0000ff" fill="#e07da6" d="M406.61,698.75C406.61,786.34,359.49,862.92,289.22,904.53C285.5,903.25,281.81,901.91,278.15,900.52C277.02,900.09,275.9,899.66,274.78,899.22C274.11,898.96,273.43,898.69,272.76,898.42C271.99,898.12,271.21,897.81,270.44,897.49C269.36,897.06,268.3,896.62,267.23,896.18C266.79,895.99,266.34,895.81,265.9,895.62C264.86,895.18,263.83,894.75,262.81,894.3C261.87,893.9,260.93,893.49,260,893.08C259.38,892.81,258.78,892.54,258.16,892.26C255.97,891.29,253.79,890.29,251.63,889.27C247.29,887.23,242.99,885.12,238.74,882.92C237.69,882.38,236.63,881.83,235.59,881.27C229.26,877.93,223.03,874.41,216.92,870.73C215.9,870.12,214.88,869.5,213.87,868.87C212.98,868.33,212.09,867.78,211.21,867.22C210.28,866.64,209.35,866.05,208.43,865.46C207.28,864.73,206.14,863.99,205,863.24C203.86,862.5,202.72,861.75,201.59,860.99C200.46,860.23,199.33,859.47,198.21,858.7C197.08,857.93,195.97,857.15,194.85,856.37C193.74,855.59,192.63,854.79,191.52,854C190.41,853.21,189.31,852.42,188.22,851.62C187.39,851.02,186.57,850.41,185.75,849.8C184.53,848.88,183.31,847.96,182.09,847.03C181.48,846.56,180.87,846.1,180.27,845.63C179.66,845.17,179.06,844.7,178.46,844.23C177.39,843.39,176.33,842.55,175.26,841.7C173.14,840,171.04,838.28,168.95,836.54C167.91,835.67,166.87,834.79,165.84,833.91C165.84,833.91,165.84,459.76,165.84,459.76C166.43,459.75,167.03,459.75,167.62,459.75C299.61,459.75,406.61,566.76,406.61,698.75C406.61,698.75,406.61,698.75,406.61,698.75Z" /></g><g id="i6" transform="matrix(1,0,0,1,0,0)"><path fill="#705cb0" d="M643.83,632.67C643.83,632.67,643.83,922.24,643.83,922.24C634.06,924.27,623.93,925.34,613.56,925.34C531.88,925.34,465.67,859.13,465.67,777.45C465.67,695.77,531.88,629.56,613.56,629.56C623.93,629.56,634.06,630.63,643.83,632.67C643.83,632.67,643.83,632.67,643.83,632.67Z" /></g><g id="i7" transform="matrix(1,0,0,1,0,0)"><path fill="#735cad" d="M344,777.45C344,859.13,277.79,925.34,196.11,925.34C185.74,925.34,175.61,924.27,165.84,922.24C165.84,922.24,165.84,632.67,165.84,632.67C175.61,630.63,185.74,629.56,196.11,629.56C277.79,629.56,344,695.78,344,777.45C344,777.45,344,777.45,344,777.45Z" /></g><g id="i8" transform="matrix(1,0,0,1,0,0)"><path fill="#6e5cab" d="M788.7,69.09C788.7,69.09,674.61,191.32,674.61,191.32C674.61,191.32,643.36,224.79,643.36,224.79C643.36,224.79,606.06,264.74,606.06,264.74C606.06,264.74,562.92,310.95,562.92,310.95C562.92,310.95,525.75,350.77,525.75,350.77C525.75,350.77,506.46,371.44,506.46,371.44C506.46,371.44,474.98,405.16,474.98,405.16C474.98,405.16,464.88,415.98,464.88,415.98C464.88,415.98,412.88,471.68,412.88,471.68C412.88,471.68,348.4,411.48,348.4,411.48C348.4,411.48,338.61,402.35,338.61,402.35C338.61,402.35,306.03,371.94,306.03,371.94C306.03,371.94,271,339.23,271,339.23C270.94,339.18,270.89,339.12,270.83,339.07C270.83,339.07,269.19,337.55,269.19,337.55C269.19,337.55,269.11,337.47,269.07,337.43C269.07,337.43,208.8,281.16,208.8,281.16C208.8,281.16,165.8,241.03,165.8,241.03C165.8,241.03,126.06,203.92,126.06,203.92C126.06,203.92,0,86.24,0,86.24C41.75,47.79,97.23,24.03,158.23,23.13C159.43,23.11,160.63,23.1,161.83,23.1C163.03,23.1,164.23,23.1,165.43,23.13C200.62,23.64,233.96,31.77,263.89,45.93C302.49,17.71,349.88,0.78,401.18,0.03C402.38,0.01,403.58,0,404.78,0C405.98,0,407.18,0.01,408.38,0.03C459.68,0.79,507.06,17.7,545.66,45.93C575.59,31.77,608.94,23.64,644.13,23.13C645.33,23.11,646.53,23.1,647.73,23.1C648.93,23.1,650.13,23.1,651.33,23.13C702.67,23.89,750.08,40.83,788.7,69.09C788.7,69.09,788.7,69.09,788.7,69.09Z" /></g><g id="i9" transform="matrix(1,0,0,1,0,0)"><path fill="#ed8275" d="M643.78,238.99C643.78,317.52,605.9,387.19,547.44,430.77C547.44,430.77,547.43,430.77,547.43,430.77C520.65,428.73,495.87,419.56,474.98,405.16C449.26,387.43,429.44,361.77,419.04,331.71C420.43,336.3,421.96,340.83,423.62,345.29C433.27,371.29,447.32,395.15,464.88,415.98C476.77,430.11,490.27,442.83,505.1,453.88C505.68,454.31,506.25,454.73,506.83,455.16C475.88,469.8,441.29,477.99,404.78,477.99C368.27,477.99,333.68,469.81,302.73,455.16C303.31,454.73,303.9,454.3,304.48,453.87C304.48,453.87,304.48,453.87,304.48,453.87C320.86,441.66,335.62,427.41,348.39,411.48C366.62,388.74,380.78,362.59,389.76,334.14C379.71,361.62,361.73,385.28,338.6,402.35C316.9,418.39,290.65,428.62,262.14,430.78C225.44,403.44,196.86,365.82,180.66,322.19C171.26,296.88,166.03,269.55,165.79,241.03C165.79,240.35,165.79,239.67,165.79,238.99C165.79,209.74,171.05,181.71,180.67,155.8C181.09,154.67,181.52,153.54,181.96,152.41C198.63,109.53,227.32,72.66,263.89,45.93C302.49,17.71,349.88,0.78,401.18,0.03C402.38,0.01,403.58,0,404.78,0C405.98,0,407.18,0.01,408.38,0.03C459.68,0.79,507.06,17.7,545.66,45.93C582.22,72.64,610.9,109.49,627.58,152.34C636.41,175.02,641.87,199.37,643.36,224.79C643.64,229.49,643.78,234.22,643.78,238.99C643.78,238.99,643.78,238.99,643.78,238.99Z" /></g><g id="i10" transform="matrix(1,0,0,1,0,0)"><path fill="#e07da6" d="M547.43,430.77C534.8,440.18,521.21,448.37,506.83,455.16C506.25,454.73,505.68,454.31,505.1,453.88C490.27,442.83,476.77,430.11,464.88,415.98C447.32,395.15,433.27,371.29,423.62,345.29C421.96,340.83,420.43,336.3,419.04,331.71C429.44,361.77,449.26,387.43,474.98,405.16C495.87,419.56,520.65,428.73,547.43,430.77C547.43,430.77,547.43,430.77,547.43,430.77Z" /></g><g id="i11" transform="matrix(1,0,0,1,0,0)"><path fill="#7059ad" d="M674.61,191.32C694.71,216.57,706.71,248.54,706.71,283.31C706.71,326.5,688.19,365.37,658.66,392.4C632.36,416.5,597.31,431.2,558.82,431.2C554.99,431.2,551.2,431.05,547.44,430.77C547.44,430.77,547.43,430.77,547.43,430.77C520.65,428.73,495.87,419.56,474.98,405.16C449.26,387.43,429.44,361.77,419.04,331.71C416.2,322.38,413.92,312.81,412.23,303.04C412.23,303.02,412.23,303,412.22,302.97C409.93,289.68,408.74,276.03,408.74,262.09C408.74,232.84,414,204.81,423.62,178.9C424.04,177.77,424.47,176.64,424.91,175.51C447.11,118.42,490.62,71.97,545.66,45.93C575.59,31.77,608.94,23.64,644.13,23.13C645.33,23.11,646.53,23.1,647.73,23.1C648.93,23.1,650.13,23.1,651.33,23.13C702.67,23.89,750.08,40.83,788.7,69.09C788.7,69.09,674.61,191.32,674.61,191.32C674.61,191.32,674.61,191.32,674.61,191.32Z" /></g><g id="i12" transform="matrix(1,0,0,1,0,0)"><path fill="#e07da6" d="M389.77,334.14C380.79,362.59,366.63,388.74,348.4,411.48C335.63,427.41,320.87,441.66,304.49,453.87C304.49,453.87,304.49,453.87,304.49,453.87C303.91,454.3,303.32,454.73,302.74,455.16C288.37,448.37,274.78,440.19,262.16,430.78C290.67,428.62,316.92,418.39,338.62,402.35C361.75,385.28,379.73,361.62,389.78,334.14C389.78,334.14,389.77,334.14,389.77,334.14Z" /></g><g id="i13" transform="matrix(1,0,0,1,0,0)"><path fill="#7059ad" d="M400.83,262.09C400.83,275.2,399.77,288.06,397.74,300.59C395.89,312.07,393.21,323.27,389.77,334.14C379.72,361.62,361.74,385.28,338.61,402.35C316.91,418.39,290.66,428.62,262.15,430.78C258.42,431.06,254.65,431.2,250.85,431.2C225.45,431.2,201.55,424.8,180.67,413.52C134.39,388.53,102.96,339.59,102.96,283.31C102.96,254.09,111.43,226.86,126.06,203.92C126.06,203.92,0,86.24,0,86.24C41.75,47.79,97.23,24.03,158.23,23.13C159.43,23.11,160.63,23.1,161.83,23.1C163.03,23.1,164.23,23.1,165.43,23.13C200.62,23.64,233.96,31.77,263.89,45.93C318.92,71.96,362.42,118.38,384.63,175.44C395.09,202.31,400.83,231.53,400.83,262.09C400.83,262.09,400.83,262.09,400.83,262.09Z" /></g><g id="i14" transform="matrix(1,0,0,1,0,0)"><path fill="#f2e3e3" d="M386.79,283.31C386.79,332.47,346.94,372.32,297.78,372.32C248.62,372.32,208.77,332.47,208.77,283.31C208.77,234.15,248.62,194.3,297.78,194.3C346.94,194.3,386.79,234.15,386.79,283.31C386.79,283.31,386.79,283.31,386.79,283.31Z" /></g><g id="i15" transform="matrix(1,0,0,1,0,0)"><path fill="#f2e3e3" d="M608,283.31C608,332.47,568.16,372.32,519,372.32C469.84,372.32,429.99,332.47,429.99,283.31C429.99,234.15,469.84,194.3,519,194.3C568.16,194.3,608,234.15,608,283.31C608,283.31,608,283.31,608,283.31Z" /></g><g id="i16" transform="matrix(1,0,0,1,0,0)"><path fill="#f2e3e3" d="M398.74,283.31C398.74,289.16,398.4,294.93,397.74,300.59C396.38,312.24,393.67,323.48,389.77,334.14C379.72,361.62,361.74,385.28,338.61,402.35C316.91,418.39,290.66,428.62,262.15,430.78C258.42,431.06,254.65,431.2,250.85,431.2C225.45,431.2,201.55,424.8,180.67,413.52C134.39,388.53,102.96,339.59,102.96,283.31C102.96,254.09,111.43,226.86,126.06,203.92C139.59,182.68,158.41,165.12,180.67,153.1C181.09,152.87,181.52,152.64,181.96,152.41C202.53,141.56,225.97,135.42,250.85,135.42C332.53,135.42,398.74,201.63,398.74,283.31C398.74,283.31,398.74,283.31,398.74,283.31Z" /></g><g id="i17" transform="matrix(1,0,0,1,0,0)"><path fill="#f2e3e3" d="M706.71,283.31C706.71,326.5,688.19,365.37,658.66,392.4C632.36,416.5,597.31,431.2,558.82,431.2C554.99,431.2,551.2,431.05,547.44,430.77C547.44,430.77,547.43,430.77,547.43,430.77C520.65,428.73,495.87,419.56,474.98,405.16C449.26,387.43,429.44,361.77,419.04,331.71C415.85,322.53,413.56,312.94,412.23,303.04C412.23,303.02,412.23,303,412.22,302.97C411.37,296.54,410.93,289.98,410.93,283.31C410.93,201.63,477.14,135.42,558.82,135.42C583.65,135.42,607.04,141.54,627.58,152.34C638.89,158.29,649.33,165.66,658.66,174.22C664.42,179.49,669.76,185.21,674.61,191.32C694.71,216.57,706.71,248.54,706.71,283.31C706.71,283.31,706.71,283.31,706.71,283.31Z" /></g><g><g transform="translate(167.927,294.37)"><animateTransform repeatCount="indefinite" type="translate" attributeName="transform" dur="5s" begin="0s" calcMode="spline" values="167.927 294.37; 334.2 290.559; 162.174 296.629; 162.174 296.629" keyTimes="0; 0.4; 0.8; 1" keySplines="0 0 1 1; 0 0 1 1; 0 0 1 1" fill="freeze" /><g id="i18" transform="translate(-310.85,-294.37)"><path fill="#7359ad" d="M370.85,294.37C370.85,327.51,343.99,354.37,310.85,354.37C277.71,354.37,250.85,327.51,250.85,294.37C250.85,261.23,277.71,234.37,310.85,234.37C343.99,234.37,370.85,261.23,370.85,294.37C370.85,294.37,370.85,294.37,370.85,294.37Z" /></g></g></g><g><g transform="translate(505.26,294.37)"><animateTransform repeatCount="indefinite" type="translate" attributeName="transform" dur="5s" begin="0s" calcMode="spline" values="505.26 294.37; 642.466 284.842; 504.094 296.442; 504.094 296.442" keyTimes="0; 0.4; 0.8; 1" keySplines="0 0 1 1; 0 0 1 1; 0 0 1 1" fill="freeze" /><g id="i19" transform="translate(-505.26,-294.37)"><path fill="#7359ad" d="M565.26,294.37C565.26,327.51,538.4,354.37,505.26,354.37C472.12,354.37,445.26,327.51,445.26,294.37C445.26,261.23,472.12,234.37,505.26,234.37C538.4,234.37,565.26,261.23,565.26,294.37C565.26,294.37,565.26,294.37,565.26,294.37Z" /></g></g></g><g><g transform="translate(138.73,278.74)"><animateTransform repeatCount="indefinite" type="translate" attributeName="transform" dur="5s" begin="0s" calcMode="spline" values="138.73 278.74; 349.135 272.073; 137.944 279.061; 137.944 279.061" keyTimes="0; 0.4; 0.8; 1" keySplines="0 0 1 1; 0 0 1 1; 0 0 1 1" fill="freeze" /><g id="i20" transform="translate(-287.37,-278.74)"><path fill="#f2e3e3" d="M315.57,278.74C315.57,286.22,312.6,293.39,307.31,298.68C302.02,303.97,294.85,306.94,287.37,306.94C279.89,306.94,272.72,303.97,267.43,298.68C262.14,293.39,259.17,286.22,259.17,278.74C259.17,263.17,271.8,250.54,287.37,250.54C302.94,250.54,315.57,263.17,315.57,278.74C315.57,278.74,315.57,278.74,315.57,278.74Z" /></g></g></g><g><g transform="translate(477.05,278.74)"><animateTransform repeatCount="indefinite" type="translate" attributeName="transform" dur="5s" begin="0s" calcMode="spline" values="477.05 278.74; 665.077 276.211; 479.473 281.854; 479.473 281.854" keyTimes="0; 0.4; 0.8; 1" keySplines="0 0 1 1; 0 0 1 1; 0 0 1 1" fill="freeze" /><g id="i21" transform="translate(-477.05,-278.74)"><path fill="#f2e3e3" d="M505.25,278.74C505.25,286.22,502.28,293.39,496.99,298.68C491.7,303.97,484.53,306.94,477.05,306.94C469.57,306.94,462.4,303.97,457.11,298.68C451.82,293.39,448.85,286.22,448.85,278.74C448.85,263.17,461.48,250.54,477.05,250.54C492.62,250.54,505.25,263.17,505.25,278.74"><animate repeatCount="indefinite" attributeName="d" dur="5s" begin="0s" calcMode="spline" values="M505.25,278.74C505.25,286.22,502.28,293.39,496.99,298.68C491.7,303.97,484.53,306.94,477.05,306.94C469.57,306.94,462.4,303.97,457.11,298.68C451.82,293.39,448.85,286.22,448.85,278.74C448.85,263.17,461.48,250.54,477.05,250.54C492.62,250.54,505.25,263.17,505.25,278.74; M505.25,278.74C505.25,286.22,502.28,293.39,496.99,298.68C491.7,303.97,484.53,306.94,477.05,306.94C469.57,306.94,462.4,303.97,457.11,298.68C451.82,293.39,448.85,286.22,448.85,278.74C448.85,263.17,461.48,250.54,477.05,250.54C492.62,250.54,505.25,263.17,505.25,278.74C505.25,278.74,505.25,278.74,505.25,278.74Z; M505.25,278.74C505.25,286.22,502.28,293.39,496.99,298.68C491.7,303.97,484.53,306.94,477.05,306.94C469.57,306.94,462.4,303.97,457.11,298.68C451.82,293.39,448.85,286.22,448.85,278.74C448.85,263.17,461.48,250.54,477.05,250.54C492.62,250.54,505.25,263.17,505.25,278.74C505.25,278.74,505.25,278.74,505.25,278.74Z" keyTimes="0; 0.086667; 1" keySplines="0 0 1 1; 0 0 1 1" fill="freeze" /></path></g></g></g><g id="i22" transform="matrix(1,0,0,1,0,0)"><path fill="#b39ede" d="M411.29,460.2C411.29,460.2,368.68,418.31,368.68,418.31C368.68,418.31,410.57,375.71,410.57,375.71C410.57,375.71,411.29,460.2,411.29,460.2C411.29,460.2,411.29,460.2,411.29,460.2Z" /></g><g id="i23" transform="matrix(1,0,0,1,0,0)"><path fill="#705cb0" d="M453.18,417.6C453.18,417.6,411.29,460.2,411.29,460.2C411.29,460.2,410.57,375.71,410.57,375.71C410.57,375.71,453.18,417.6,453.18,417.6C453.18,417.6,453.18,417.6,453.18,417.6Z" /></g></g></svg>
